<svg xmlns="http://www.w3.org/2000/svg" viewBox="0 0 442.97 105.22"><defs><style>.cls-1{fill:#1c4734;}</style></defs><g id="Calque_2" data-name="Calque 2"><g id="Calque_1-2" data-name="Calque 1"><path class="cls-1" d="M145.1,34.61c-4.9-1.11-6.12-1.82-6.12-3.43v-.1c0-1.27,1.17-2.28,3.54-2.28a17.85,17.85,0,0,1,9.91,3.48l4.91-6.91c-3.85-3.09-8.55-4.71-14.56-4.71-8.5,0-13.7,4.76-13.7,11.32v.11c0,7.28,5.81,9.4,13.34,11.12,4.8,1.11,6,1.92,6,3.38v.11c0,1.51-1.42,2.42-4,2.42a18.18,18.18,0,0,1-11.48-4.25l-5.46,6.53A24.73,24.73,0,0,0,144,57.27c8.6,0,14.32-4.3,14.32-11.53v-.1C158.3,39,153.24,36.39,145.1,34.61Z"/><path class="cls-1" d="M172.85,48.06V21.27h-9.8V56.66H190v-8.6Z"/><path class="cls-1" d="M215.87,21h-9.46L191.35,56.66h10.31l2.53-6.32h13.65l2.57,6.32h10.52Zm-8.8,21.69,4-10.07L215,42.71Z"/><path class="cls-1" d="M261.61,21.27,253.17,35l-8.44-13.69H234.36V56.66H244V36.44l9,13.74h.2l9.05-13.84V56.66H272V21.27Z"/><path class="cls-1" d="M305.89,21.27H292.24V56.66h13.45c12.74,0,20.17-7.59,20.17-17.8v-.1C325.86,28.55,318.53,21.27,305.89,21.27ZM315.8,39c0,5.71-3.9,8.94-9.75,8.94h-4V30h4c5.85,0,9.75,3.29,9.75,8.95Z"/><path class="cls-1" d="M353.45,21.27V41.18c0,5-2.57,7.29-6.51,7.29s-6.53-2.43-6.53-7.54V21.27h-10V41.14c0,11.06,6.31,16.18,16.37,16.18s16.58-5,16.58-16.44V21.27Z"/><path class="cls-1" d="M392.94,21.27V40L378.37,21.27h-9.14V56.66h9.7V37.24L394,56.66h8.6V21.27Z"/><path class="cls-1" d="M429.13,36.48l13.39-15.21H430.9L418.72,35.62V21.27h-9.81V56.66h9.81V47.5l3.58-4,8.9,13.15H443Z"/><path class="cls-1" d="M181.59,72.06A6.91,6.91,0,0,0,180,69.75a7.16,7.16,0,0,0-2.41-1.52,8.75,8.75,0,0,0-6.08,0,7.26,7.26,0,0,0-2.42,1.52,7,7,0,0,0-1.61,2.31,7.74,7.74,0,0,0,0,5.78,7.15,7.15,0,0,0,4,3.84,8.21,8.21,0,0,0,3,.55,8.32,8.32,0,0,0,3-.54A7,7,0,0,0,180,80.18a7.12,7.12,0,0,0,1.59-2.31,7.69,7.69,0,0,0,0-5.81ZM179.13,77a4.58,4.58,0,0,1-1,1.57,4.47,4.47,0,0,1-1.56,1,5.08,5.08,0,0,1-2,.37,5.27,5.27,0,0,1-2-.37,4.53,4.53,0,0,1-1.58-1,5.25,5.25,0,0,1-1-5.56,5.27,5.27,0,0,1,1-1.57,4.67,4.67,0,0,1,1.58-1,5.47,5.47,0,0,1,2-.37,5.27,5.27,0,0,1,2,.37,4.76,4.76,0,0,1,1.57,1A4.65,4.65,0,0,1,179.15,73a5.56,5.56,0,0,1,.36,2A5.24,5.24,0,0,1,179.13,77Z"/><polygon class="cls-1" points="215.64 82.04 218.27 82.04 218.27 76.6 225.1 76.6 225.1 74.42 218.27 74.42 218.27 70.12 225.97 70.12 225.97 67.9 215.64 67.9 215.64 82.04"/><polygon class="cls-1" points="259.21 82.04 261.84 82.04 261.84 76.6 268.67 76.6 268.67 74.42 261.84 74.42 261.84 70.12 269.54 70.12 269.54 67.9 259.21 67.9 259.21 82.04"/><polygon class="cls-1" points="305.41 75.94 312.24 75.94 312.24 73.78 305.41 73.78 305.41 70.12 313.11 70.12 313.11 67.9 302.79 67.9 302.79 82.04 313.39 82.04 313.39 79.81 305.41 79.81 305.41 75.94"/><path class="cls-1" d="M355.85,77.39l.22-.08a4.7,4.7,0,0,0,2.07-1.72,4.77,4.77,0,0,0,.72-2.66,4.91,4.91,0,0,0-.72-2.71,4.65,4.65,0,0,0-2.07-1.73,8,8,0,0,0-3.23-.6H347V82h2.63V77.92h3.19c.19,0,.37,0,.55,0L356.27,82h2.84Zm-3.13-1.64h-3.07V70.12h3.07a3.91,3.91,0,0,1,2.61.74,2.52,2.52,0,0,1,.88,2.07,2.59,2.59,0,0,1-.88,2.08A3.91,3.91,0,0,1,352.72,75.75Z"/><path class="cls-1" d="M402.14,76.21a3.48,3.48,0,0,0-1.2-1.15,7.81,7.81,0,0,0-1.64-.71c-.59-.18-1.19-.34-1.8-.47s-1.15-.28-1.64-.43a3.3,3.3,0,0,1-1.2-.61,1.33,1.33,0,0,1-.45-1,1.6,1.6,0,0,1,.31-1,2.14,2.14,0,0,1,1-.7,4.91,4.91,0,0,1,1.76-.26,7.49,7.49,0,0,1,1.94.27,7.63,7.63,0,0,1,2,.84l.83-2a7.07,7.07,0,0,0-2.18-.93,9.93,9.93,0,0,0-2.53-.33,7.79,7.79,0,0,0-3.2.58,4.23,4.23,0,0,0-1.88,1.54,3.83,3.83,0,0,0-.62,2.11,3.51,3.51,0,0,0,.46,1.86,3.42,3.42,0,0,0,1.2,1.16,7.67,7.67,0,0,0,1.65.71c.6.19,1.2.35,1.79.48s1.15.27,1.64.42a3.57,3.57,0,0,1,1.2.63,1.3,1.3,0,0,1,.47,1,1.48,1.48,0,0,1-.33.94,2.14,2.14,0,0,1-1,.65,5.2,5.2,0,0,1-1.79.25,7.56,7.56,0,0,1-2.57-.45,7.18,7.18,0,0,1-2.1-1.11l-.91,2a7,7,0,0,0,2.42,1.22,10.29,10.29,0,0,0,3.16.48,7.71,7.71,0,0,0,3.21-.58A4.19,4.19,0,0,0,402,80.13a3.8,3.8,0,0,0,.61-2.09A3.4,3.4,0,0,0,402.14,76.21Z"/><path class="cls-1" d="M18.16,92.32s0,0,0,.05a52,52,0,0,0,7.23,5.27H7.57V80.12a51.4,51.4,0,0,0,7.1,9.15A54,54,0,0,1,21.28,79,45.48,45.48,0,0,1,34.59,67.82V58.36h0V58.1H0v47.12H50.51V71.8H36.65C28.85,76,22.36,83.27,18.16,92.32Z"/><path class="cls-1" d="M0,52.54v1.23H0v.17H34.59V44.82a45.46,45.46,0,0,1-13.13-11A54.9,54.9,0,0,1,12.61,18.3a50.67,50.67,0,0,0-4.79,6.6V7.82h17.1a50.93,50.93,0,0,0-8.83,6.9.42.42,0,0,1,0,.06c.13.37.25.76.39,1.12s.28.75.41,1.12c.53,1.39,1.11,2.76,1.74,4.08s1.29,2.54,2,3.75A42.72,42.72,0,0,0,36.41,40.8l.1-.08a.18.18,0,0,1-.08,0l0,0,14-11.18V0H0Z"/><path class="cls-1" d="M71.83,58.35h0v9.46A45.48,45.48,0,0,1,85.14,79a54,54,0,0,1,6.61,10.26,51.4,51.4,0,0,0,7.1-9.15V97.64H81.06a52,52,0,0,0,7.23-5.27s0,0,0-.05c-4.2-9-10.69-16.29-18.49-20.52H55.91v33.42h50.51V58.1H71.83Z"/><path class="cls-1" d="M55.9,0V29.46l14,11.18,0,0a.12.12,0,0,1-.07,0l.1.08A42.72,42.72,0,0,0,85.77,24.85c.71-1.21,1.38-2.45,2-3.75S89,18.41,89.51,17c.13-.37.27-.74.41-1.12s.26-.75.39-1.12a.42.42,0,0,1,0-.06,50.93,50.93,0,0,0-8.83-6.9H98.59V24.9a49.68,49.68,0,0,0-4.78-6.6A54.9,54.9,0,0,1,85,33.77a45.46,45.46,0,0,1-13.13,11v9.12h34.58v-.17c0-.41,0-.83,0-1.23V0Z"/></g></g></svg>