<svg xmlns="http://www.w3.org/2000/svg" viewBox="0 0 470.88 140.49"><defs><style>.cls-1{fill:#1c4734;}</style></defs><g id="Calque_2" data-name="Calque 2"><g id="Calque_1-2" data-name="Calque 1"><path class="cls-1" d="M207.71,52.27V43.82h21.9v8.45a8.6,8.6,0,0,1-.32.87,22.66,22.66,0,0,1-1.06,2.13,27.6,27.6,0,0,1-1.74,3,22.24,22.24,0,0,1-2.69,3.12,21.72,21.72,0,0,1-3.66,3,19.06,19.06,0,0,1-4.74,2.07,20.8,20.8,0,0,1-5.92.83,21,21,0,0,1-10.37-2.69,19.78,19.78,0,0,1-7.46-7.18,19.35,19.35,0,0,1,0-19.87,20,20,0,0,1,7.46-7.22,21.36,21.36,0,0,1,18.47-1.06,21.08,21.08,0,0,1,6.69,4.42,19.68,19.68,0,0,1,3.35,4.41l-10,5.12h-.11a9.06,9.06,0,0,0-4.41-3.83,9.51,9.51,0,0,0-3.61-.7A9,9,0,0,0,203,41.2a8.25,8.25,0,0,0-2.67,6.22,8.48,8.48,0,0,0,1.22,4.44,8.65,8.65,0,0,0,3.33,3.19,9.43,9.43,0,0,0,8.27.43,9.06,9.06,0,0,0,3.94-3.2Z"/><path class="cls-1" d="M252.12,54.92V28.1h11.25V56.31a10.13,10.13,0,0,1-3,7.38A9.93,9.93,0,0,1,253,66.78H242.7a10,10,0,0,1-7.35-3.09,10.09,10.09,0,0,1-3-7.38V28.1h11.25V54.92a3.35,3.35,0,0,0,3.34,3.33h1.89a3.18,3.18,0,0,0,2.36-1A3.27,3.27,0,0,0,252.12,54.92Z"/><path class="cls-1" d="M294.54,52.71l.06-24.61h11.25V65.79H290.08L278.77,41.08V65.79H267.51V28.1h15.8Z"/><path class="cls-1" d="M308,28.1h32.3v8.52h-10.5V65.79H318.48V36.6H308Z"/><path class="cls-1" d="M353.55,28.1h14.26v8.52H353.55V43.2h10.82v8.53H353.55v5.59h14.26v8.53H342.29V28.1Z"/><path class="cls-1" d="M404.53,42.26a9,9,0,0,1-7.69,8.94l8.39,14.51h-13l-8.4-14.48h-1.42V65.79H371.16V28.1h24.33a8.74,8.74,0,0,1,6.4,2.64,8.64,8.64,0,0,1,2.63,6.4Zm-22.09-5.54v6h8.71a2.12,2.12,0,0,0,2.11-2.1V38.82a2.13,2.13,0,0,0-2.13-2.13Z"/><path class="cls-1" d="M214.46,74.71A8.31,8.31,0,0,1,222.75,83v3.09q0,7.47-5.49,7.46,5.49,0,5.49,7.38v3.2a8.31,8.31,0,0,1-8.29,8.29H189.37V74.71Zm-3,12.54V85.42a2.13,2.13,0,0,0-2.13-2.13h-8.72v6h8.72a2.13,2.13,0,0,0,2.13-2.13Zm0,14.53V99.94a2.13,2.13,0,0,0-2.13-2.13h-8.72v6.07h8.72a2.13,2.13,0,0,0,2.13-2.13Z"/><path class="cls-1" d="M259.84,88.81a9,9,0,0,1-7.69,8.93l8.39,14.6h-13l-8.4-14.48h-1.45v14.53H226.46V74.71h24.33a9,9,0,0,1,9,8.92v5.18Zm-22.13-5.49v6h8.72a2.13,2.13,0,0,0,2.13-2.14V85.42a2.13,2.13,0,0,0-2.13-2.13Z"/><path class="cls-1" d="M282.5,73.74a20.59,20.59,0,0,1,8,1.59,21.55,21.55,0,0,1,6.56,4.26,19.44,19.44,0,0,1,4.43,6.26,19.19,19.19,0,0,1-1.13,17.63,19.88,19.88,0,0,1-7.47,7.21,21.38,21.38,0,0,1-20.69,0,19.88,19.88,0,0,1-7.47-7.21,19.33,19.33,0,0,1,0-19.86,19.88,19.88,0,0,1,7.47-7.21A20.73,20.73,0,0,1,282.5,73.74Zm0,29a9.4,9.4,0,0,0,6.79-2.68,9,9,0,0,0,.35-12.69l-.35-.35a9.94,9.94,0,0,0-13.59,0,8.91,8.91,0,0,0-1.53,11.15,9.4,9.4,0,0,0,3.49,3.34A9.66,9.66,0,0,0,282.5,102.75Z"/><path class="cls-1" d="M303.29,74.71H335.6v8.53H325.1v29.17H313.78V83.22H303.29Z"/><path class="cls-1" d="M355.78,89.4V74.71H367v37.68H355.78V97.86h-6.9v14.53H337.64V74.71h11.24V89.4Z"/><path class="cls-1" d="M382.64,74.71h14.27v8.53H382.64V89.8h10.83v8.53H382.64v5.55h14.27v8.53H371.4V74.71Z"/><path class="cls-1" d="M433.66,88.81a9,9,0,0,1-7.7,8.93l8.4,14.6h-13L413,97.86H411.5v14.53H400.25V74.71h24.33a9,9,0,0,1,9.08,8.93v5.17Zm-22.12-5.49v6h8.71a2.14,2.14,0,0,0,2.14-2.14V85.42a2.14,2.14,0,0,0-2.14-2.13Z"/><path class="cls-1" d="M465.23,91.18q5.76,4.09,5.65,10.55a9.75,9.75,0,0,1-2,6,10.56,10.56,0,0,1-2.07,2,13.78,13.78,0,0,1-2.45,1.46,23.82,23.82,0,0,1-2.59,1,24.87,24.87,0,0,1-2.44.67,19.33,19.33,0,0,1-2.13.36l-1.46.16h-.62a41.06,41.06,0,0,1-6.83-.57,33,33,0,0,1-5.63-1.37c-1.52-.54-2.89-1.07-4.09-1.61a18.83,18.83,0,0,1-2.67-1.4l-.86-.54,8.08-8.3,2.56,1.07a40,40,0,0,0,4.89,1.61,10.75,10.75,0,0,0,4.93.56c.46-.1.82-.2,1.07-.28a2.91,2.91,0,0,0,.75-.46,3.18,3.18,0,0,0,.65-.81,1.55,1.55,0,0,0-.32-1.7,5.64,5.64,0,0,0-1.61-1.17c-.29-.14-1.07-.43-2.32-.86s-2-.72-2.64-1-1.6-.65-2.85-1.21-2.28-1.06-3.07-1.51-1.69-1.07-2.71-1.72A12.35,12.35,0,0,1,440,89.94a11.7,11.7,0,0,1-1.56-2.43,6.29,6.29,0,0,1-.67-2.82q0-7.32,6.62-9.74a19.53,19.53,0,0,1,3.93-.92,30.83,30.83,0,0,1,3.71-.35H456a20.54,20.54,0,0,1,4.42.46,21.89,21.89,0,0,1,3.54,1,17.61,17.61,0,0,1,2.7,1.29,16.62,16.62,0,0,1,1.7,1.06L469,78l1.06.86-7.37,7.26-.87-.59A22.17,22.17,0,0,0,459.05,84,17.6,17.6,0,0,0,456.3,83a15,15,0,0,0-2.4-.46,5,5,0,0,0-1.85.11,1.21,1.21,0,0,0-.92.7c-.39,1,.31,1.84,2.13,2.48l2.05.75A39.39,39.39,0,0,1,465.23,91.18Z"/><polygon class="cls-1" points="151.7 59.92 103.65 75.28 106.16 84.36 112.12 81.99 111.88 77.65 117.15 80.02 124.06 93.81 99.56 118.64 107.11 123.37 80.4 140.49 53.7 123.37 61.25 118.64 36.75 93.81 43.65 80.02 48.92 77.65 48.69 81.99 54.65 84.36 57.16 75.28 9.11 59.92 0 41.39 22.61 0 19.15 39.03 33.29 44.54 35.81 53.61 80.4 29.97 125 53.61 127.52 44.54 141.64 39.03 138.19 0 160.81 41.39 151.7 59.92"/></g></g></svg>