<svg xmlns="http://www.w3.org/2000/svg" viewBox="0 0 302.42 102.79"><defs><style>.cls-1{fill:#1c4734;}</style></defs><g id="Calque_2" data-name="Calque 2"><g id="Calque_1-2" data-name="Calque 1"><path class="cls-1" d="M142.72,52.72a21,21,0,0,0-4.86-1.51,16.16,16.16,0,0,0,2.43-1.2,14.48,14.48,0,0,0,5.42-5.66,15,15,0,0,0,1.69-6.88c0-4.46-1.48-7.95-4.44-10.5s-7.17-3.81-12.62-3.81H92.45l4.64,28.69L92.45,82.12h39.31A24.91,24.91,0,0,0,142.53,80a15.27,15.27,0,0,0,6.56-5.7A15.54,15.54,0,0,0,151.33,66a14.78,14.78,0,0,0-2.08-7.78A14.33,14.33,0,0,0,142.72,52.72Zm-8.05-19.14a6.89,6.89,0,0,1,2.28,5.3,8.2,8.2,0,0,1-2.76,6.65,10.38,10.38,0,0,1-6.91,2.31H106.43l-2.65-16.35h24.28Q132.38,31.49,134.67,33.58Zm3.49,38q-2.7,2.25-7.58,2.25H103.73l2.73-17.93H128.3c4.14,0,7.27.82,9.39,2.44a8.13,8.13,0,0,1,3.19,6.84A7.82,7.82,0,0,1,138.16,71.54Z"/><rect class="cls-1" x="159.9" y="21.59" width="10.22" height="60.53"/><path class="cls-1" d="M190.91,21.71a8,8,0,0,0-9.63,0,5.25,5.25,0,0,0-1.89,4.2,5.28,5.28,0,0,0,1.89,4.21,8,8,0,0,0,9.63,0,5.34,5.34,0,0,0,1.85-4.21A5.3,5.3,0,0,0,190.91,21.71Z"/><polygon class="cls-1" points="180.97 37.31 180.97 82.12 191.18 82.12 191.18 37.31 186.07 38.25 180.97 37.31"/><path class="cls-1" d="M241.14,57.87a33.07,33.07,0,0,0-10.57-2.4l-11.24-1q-5.12-.48-7-1.69a3.5,3.5,0,0,1-1.89-2.95q0-2.75,3.11-4.17a21.3,21.3,0,0,1,8.61-1.41,24.63,24.63,0,0,1,8.29,1.14,11.47,11.47,0,0,1,4.64,2.83,7.05,7.05,0,0,1,1.85,3.5h10.37a12.92,12.92,0,0,0-3.61-7.9,21.66,21.66,0,0,0-8.65-5.35,36.87,36.87,0,0,0-12.34-1.93A38.33,38.33,0,0,0,211,38.14a17.87,17.87,0,0,0-7.86,4.67,10.87,10.87,0,0,0-2.83,7.63A11.1,11.1,0,0,0,202,56.37a13.13,13.13,0,0,0,5.82,4.72A33.38,33.38,0,0,0,219,63.64l8.73.79q6,.55,8.13,1.65A3.49,3.49,0,0,1,238,69.3,5,5,0,0,1,234.81,74c-2.15,1-5.34,1.54-9.59,1.54a27,27,0,0,1-7.82-1,13.68,13.68,0,0,1-5.5-2.95,8,8,0,0,1-2.56-4.44H199a13.44,13.44,0,0,0,3.42,8.45,20.45,20.45,0,0,0,9,5.67,42.43,42.43,0,0,0,13.75,2A39.67,39.67,0,0,0,238,81.45a15.76,15.76,0,0,0,7.62-5.07,13.18,13.18,0,0,0,.95-14A11.48,11.48,0,0,0,241.14,57.87Z"/><path class="cls-1" d="M300.84,62.39a11.41,11.41,0,0,0-5.38-4.52,33.07,33.07,0,0,0-10.57-2.4l-11.24-1q-5.11-.48-7-1.69a3.5,3.5,0,0,1-1.89-2.95q0-2.75,3.11-4.17a21.3,21.3,0,0,1,8.61-1.41,24.67,24.67,0,0,1,8.29,1.14,11.47,11.47,0,0,1,4.64,2.83,7,7,0,0,1,1.84,3.5h10.38A12.92,12.92,0,0,0,298,43.8a21.66,21.66,0,0,0-8.65-5.35A36.87,36.87,0,0,0,277,36.52a38.33,38.33,0,0,0-11.72,1.62,17.87,17.87,0,0,0-7.86,4.67,10.87,10.87,0,0,0-2.83,7.63,11.1,11.1,0,0,0,1.73,5.93,13.13,13.13,0,0,0,5.82,4.72,33.32,33.32,0,0,0,11.16,2.55l8.73.79q6,.55,8.13,1.65a3.48,3.48,0,0,1,2.16,3.22A5,5,0,0,1,289.13,74c-2.15,1-5.34,1.54-9.59,1.54a27,27,0,0,1-7.82-1,13.68,13.68,0,0,1-5.5-2.95,8,8,0,0,1-2.56-4.44H253.29a13.44,13.44,0,0,0,3.42,8.45,20.45,20.45,0,0,0,9,5.67,42.43,42.43,0,0,0,13.75,2,39.67,39.67,0,0,0,12.82-1.77,15.76,15.76,0,0,0,7.62-5.07,12.44,12.44,0,0,0,2.52-7.78A12.26,12.26,0,0,0,300.84,62.39Z"/><path class="cls-1" d="M52.31,42.45,63.77,31.77,52.31,6.56,30.7.63,28.43,0l-1.5,1L0,19.49v83.24l30.93.06L70.62,66.9ZM4.58,21.91,28.17,5.72,39.09,26.93,4.58,54.16Zm0,71.19V60L28.83,41.15,39.21,65.79Z"/></g></g></svg>