<svg xmlns="http://www.w3.org/2000/svg" viewBox="0 0 431.03 100.08"><defs><style>.cls-1{fill:#1c4734;}</style></defs><g id="Calque_2" data-name="Calque 2"><g id="Calque_1-2" data-name="Calque 1"><path class="cls-1" d="M31,30.45,31,60.91H31A30.46,30.46,0,1,1,31,0H31Z"/><path class="cls-1" d="M44.37,69.23,44.3,99.68h.07a30.46,30.46,0,0,0,0-60.91h-.06Z"/><path class="cls-1" d="M75,.26l-.13,30.86A31,31,0,0,1,44.13.26V.14Z"/><path class="cls-1" d="M119.53.26l-.14,30.86S88.67.18,88.67.14Z"/><circle class="cls-1" cx="104.1" cy="54.29" r="15.43"/><circle class="cls-1" cx="15.43" cy="84.65" r="15.43"/><path class="cls-1" d="M155.64,65a31,31,0,0,1-13.78-6.51l-1.25-1.05,5.8-6.14,1.25,1a22.37,22.37,0,0,0,9.7,4.73h.06a16.62,16.62,0,0,0,3,.3,10.89,10.89,0,0,0,4.42-.86,4.83,4.83,0,0,0,3.43-4.48A3.68,3.68,0,0,0,166,48.82a20.31,20.31,0,0,0-6.13-1.9c-.79-.12-7.51-1.41-10.61-3a13.58,13.58,0,0,1-4.75-4.36,10.84,10.84,0,0,1-1.65-5.9,11.81,11.81,0,0,1,2.31-6.82,15.52,15.52,0,0,1,5.8-4.3,19.42,19.42,0,0,1,7.85-1.59c1.12,0,2.31.12,3.49.24a27.62,27.62,0,0,1,12.4,5.53l1.25,1L170.35,34l-1.26-1c-4.28-3.26-8-4-10.35-4a10.76,10.76,0,0,0-4.09.79c-1.84.8-3,2.28-3,3.75a3.26,3.26,0,0,0,1.78,3,19,19,0,0,0,6.2,2c.39.06.92.18,1.45.3,2.77.5,6.46,1.23,9,2.65A12.93,12.93,0,0,1,175.23,46,10.91,10.91,0,0,1,177,52.08a11.78,11.78,0,0,1-2.38,7.31,16,16,0,0,1-6.13,4.54,18.15,18.15,0,0,1-8.11,1.6A25.8,25.8,0,0,1,155.64,65Z"/><path class="cls-1" d="M193.29,65.16a11,11,0,0,1-7.58-2.89,9.43,9.43,0,0,1-3.1-7.06V43.54h-4.22V37.21h4.22v-11h7.85V37.21h8.77v6.33h-8.77V55.09a3.1,3.1,0,0,0,2.9,2.95h5.73l2.11,7.12Z"/><path class="cls-1" d="M207.86,62.15A12.08,12.08,0,0,1,203.71,53V37H212V53a5.51,5.51,0,0,0,5.8,5.22c3.23,0,5.87-2.33,5.87-5.22V37H232V53a12.36,12.36,0,0,1-4.22,9.15,15.29,15.29,0,0,1-19.92,0Z"/><path class="cls-1" d="M240,61.48a14,14,0,0,1,0-20.76,16.2,16.2,0,0,1,11.15-4.24,11.28,11.28,0,0,1,7.45,2.76l.33.25V20.08h8V65.16h-8V63l-.33.31a10.4,10.4,0,0,1-7.45,2.45A16.46,16.46,0,0,1,240,61.48Zm3.36-10.38a7.79,7.79,0,0,0,15.57,0,7.79,7.79,0,0,0-15.57,0Z"/><path class="cls-1" d="M273.86,28.92a4.3,4.3,0,0,1,1.52-3.31A5.19,5.19,0,0,1,279,24.19a5,5,0,0,1,5.07,4.73,5.13,5.13,0,0,1-10.22,0Zm.86,36.24V37h8.57V65.16Z"/><path class="cls-1" d="M292.39,61.54a14.66,14.66,0,0,1-4.62-10.44,14.46,14.46,0,0,1,4.62-10.45,16.79,16.79,0,0,1,11.21-4.23,16,16,0,0,1,11.14,4.23,14,14,0,0,1,0,20.89,16.26,16.26,0,0,1-11.14,4.3A16.94,16.94,0,0,1,292.39,61.54Zm3.16-10.44a8.09,8.09,0,1,0,8.05-7.68A7.89,7.89,0,0,0,295.55,51.1Z"/><polygon class="cls-1" points="327.4 66.86 341.01 66.86 341.01 50.14 358.94 50.14 358.94 39.21 341.01 39.21 341.01 33.56 358.94 33.56 358.94 22.64 327.4 22.64 327.4 66.86"/><rect class="cls-1" x="362.18" y="35.86" width="12.12" height="31"/><path class="cls-1" d="M368.2,22.11a6.5,6.5,0,0,0-6.48,6.51,6.34,6.34,0,0,0,1.9,4.59,6.43,6.43,0,0,0,9.19,0,6.51,6.51,0,0,0-4.61-11.1Z"/><polygon class="cls-1" points="411.11 35.86 406.07 47.36 401.34 35.86 389.96 35.86 389.96 22.64 377.84 22.64 377.84 66.86 389.96 66.86 389.96 39.57 399.81 60.64 390.94 80.08 403.98 80.08 424 35.86 411.11 35.86"/><path class="cls-1" d="M429,55.58a6.76,6.76,0,0,0-4.92-2,6.95,6.95,0,1,0,4.92,2Z"/></g></g></svg>