<svg xmlns="http://www.w3.org/2000/svg" viewBox="0 0 540 92.02"><defs><style>.cls-1{fill:#1c4734;}</style></defs><g id="Calque_2" data-name="Calque 2"><g id="Calque_1-2" data-name="Calque 1"><g id="_Répétition_radiale_" data-name="&lt;Répétition radiale&gt;"><path class="cls-1" d="M57.48,92a25.93,25.93,0,0,1-25.9-25.29L45,66.4A12.45,12.45,0,0,0,57.8,78.55L58.12,92Z"/></g><g id="_Répétition_radiale_2" data-name="&lt;Répétition radiale&gt;"><path class="cls-1" d="M22.05,87.11a26,26,0,0,1-.89-36.65l9.75,9.29a12.47,12.47,0,0,0,.42,17.61Z"/></g><g id="_Répétition_radiale_3" data-name="&lt;Répétition radiale&gt;"><path class="cls-1" d="M0,58.12A26,26,0,0,1,25.29,31.58L25.62,45A12.47,12.47,0,0,0,13.47,57.8Z"/></g><g id="_Répétition_radiale_4" data-name="&lt;Répétition radiale&gt;"><path class="cls-1" d="M14.66,31.33,4.92,22.05a25.94,25.94,0,0,1,36.64-.89l-9.28,9.75A12.48,12.48,0,0,0,14.66,31.33Z"/></g><g id="_Répétition_radiale_5" data-name="&lt;Répétition radiale&gt;"><path class="cls-1" d="M47,25.62A12.45,12.45,0,0,0,34.22,13.47L33.9,0A25.9,25.9,0,0,1,60.44,25.29Z"/></g><g id="_Répétition_radiale_6" data-name="&lt;Répétition radiale&gt;"><path class="cls-1" d="M87.11,70a25.93,25.93,0,0,1-36.65.89l9.28-9.75a12.47,12.47,0,0,0,17.38-.18l.24-.24.25.24Z"/></g><path class="cls-1" d="M77.61,60.93h-.49l.24-.24Z"/><polygon class="cls-1" points="87.39 30.48 87.39 30.48 51.24 33.16 33.38 34.48 29.57 34.77 30.79 35.3 44.98 41.56 49.19 43.42 52.61 42.54 52.62 42.54 53.22 42.39 67.74 38.67 89.14 33.2 104.78 29.19 99.57 29.58 87.39 30.48"/><polygon class="cls-1" points="89.56 34.47 89.55 34.48 71.17 40.85 71.17 40.85 60.13 44.68 53.99 46.81 53.6 46.95 49.17 59.53 61.7 50.08 73.72 55.71 81.72 59.45 82.67 59.9 84.88 56.84 92 46.94 100.7 34.85 103.56 30.89 104.78 29.19 89.56 34.47"/><path class="cls-1" d="M124.4,19.52c2.12-.15,4.64-.28,7.58-.39s6-.15,9-.15a43.91,43.91,0,0,1,9.51.93,19.85,19.85,0,0,1,7.07,2.93A13.15,13.15,0,0,1,162,28a17.83,17.83,0,0,1,1.5,7.66q0,9.59-6.1,14t-17,4.45h-6.18v18.7H124.4Zm15.08,27.13q7,0,10.59-2.55t3.55-8.27c0-3.14-1-5.49-3-7s-5.07-2.32-9.24-2.32c-2.32,0-4.72.07-7.19.23V46.65Z"/><path class="cls-1" d="M171.24,31.42l9.43-.61-.23,26A74.93,74.93,0,0,1,182,44.53a27.16,27.16,0,0,1,2.94-8,11.6,11.6,0,0,1,4.17-4.37,10.32,10.32,0,0,1,5.14-1.31c.57,0,1.16,0,1.78.07a15.76,15.76,0,0,1,1.77.24v9h-2.47A20.79,20.79,0,0,0,189,41a8.82,8.82,0,0,0-4.52,3.32,18.37,18.37,0,0,0-2.78,7.07,64.13,64.13,0,0,0-1.05,12.18v9.27h-9.43Z"/><path class="cls-1" d="M204.87,22.92A4.17,4.17,0,0,1,206,20c.74-.8,2.23-1.2,4.44-1.2s3.7.4,4.45,1.2a4.51,4.51,0,0,1,0,5.95c-.75.8-2.23,1.2-4.45,1.2a10.61,10.61,0,0,1-2.78-.31,4.2,4.2,0,0,1-1.7-.89,3,3,0,0,1-.85-1.35A5.49,5.49,0,0,1,204.87,22.92Zm.92,8.35h9.28V72.85h-9.28Z"/><path class="cls-1" d="M251.71,44.87a22,22,0,0,0-.16-2.47,6.27,6.27,0,0,0-.77-2.4A4.77,4.77,0,0,0,249,38.23a6.67,6.67,0,0,0-3.36-.7,8.89,8.89,0,0,0-8.16,4.87,24.22,24.22,0,0,0-2.51,7.38,65.69,65.69,0,0,0-1,11.79V72.85H224.5V31.42l9.43-.61-.23,24h.07a56.2,56.2,0,0,1,1.78-11.29,24.77,24.77,0,0,1,3.4-7.57,13,13,0,0,1,4.87-4.29,13.82,13.82,0,0,1,6.11-1.35,12.08,12.08,0,0,1,6.53,1.46,9.22,9.22,0,0,1,3.32,3.48A11,11,0,0,1,261,39.35c.13,1.41.19,2.56.19,3.44v9.89a51.61,51.61,0,0,1,2-10.28,23.28,23.28,0,0,1,3.4-7,12.56,12.56,0,0,1,4.76-3.94,14,14,0,0,1,5.87-1.23,11.93,11.93,0,0,1,6.46,1.46A9.3,9.3,0,0,1,287,35.21a11,11,0,0,1,1.24,4.14c.12,1.41.19,2.56.19,3.44V72.85H279v-28a21.9,21.9,0,0,0-.15-2.47,6.46,6.46,0,0,0-.78-2.4,4.72,4.72,0,0,0-1.85-1.77,6.73,6.73,0,0,0-3.33-.7,9.62,9.62,0,0,0-4.48,1.08,9.45,9.45,0,0,0-3.67,3.79,24,24,0,0,0-2.51,7.38,65.58,65.58,0,0,0-1,11.79V72.85h-9.5Z"/><path class="cls-1" d="M316.86,73.7a22.35,22.35,0,0,1-9-1.66,17.14,17.14,0,0,1-6.26-4.56,18.23,18.23,0,0,1-3.63-6.88A30.4,30.4,0,0,1,296.77,52a29.67,29.67,0,0,1,1.2-8.61,18.23,18.23,0,0,1,3.71-6.88A17.4,17.4,0,0,1,308,31.93a22,22,0,0,1,8.89-1.66,28.37,28.37,0,0,1,7.27,1,15.8,15.8,0,0,1,6.49,3.52A16.06,16.06,0,0,1,335,41.82q1.5,4.51.81,11.71h-30a18.14,18.14,0,0,0,.89,5.29A12.46,12.46,0,0,0,309,63a10.21,10.21,0,0,0,3.52,2.7,10.51,10.51,0,0,0,4.59,1,14.86,14.86,0,0,0,2.9-.31,8.41,8.41,0,0,0,3-1.24,9.9,9.9,0,0,0,2.63-2.59,10.36,10.36,0,0,0,1.66-4.29l8.58,1.94q-1.39,7-6.46,10.28A22.84,22.84,0,0,1,316.86,73.7Zm10.67-23.88a14.6,14.6,0,0,0-.89-6.3A10.27,10.27,0,0,0,324,39.69a9.06,9.06,0,0,0-3.47-1.89,13.33,13.33,0,0,0-3.41-.5,10,10,0,0,0-8,3.36q-2.87,3.36-3.25,9.16Z"/><path class="cls-1" d="M365.17,19.52q2.4-.15,6.84-.35c3-.12,6.27-.19,9.93-.19q11.13,0,16.62,3.75t5.49,11.63q0,6.64-4.1,10.47a24.74,24.74,0,0,1-10.82,5.61l18,22.41H396L377.07,48.51q8.9-1,13-4.06a10,10,0,0,0,4.1-8.54q0-9.43-11.91-9.43c-1.34,0-2.59,0-3.75,0s-2.33.09-3.51.19V72.85h-9.82Z"/><path class="cls-1" d="M430.64,73.7A22.85,22.85,0,0,1,421.48,72a17.53,17.53,0,0,1-6.34-4.56,18,18,0,0,1-3.67-6.88,32.57,32.57,0,0,1,0-17.23,18,18,0,0,1,3.67-6.88,17.42,17.42,0,0,1,6.34-4.56,26.1,26.1,0,0,1,18.32,0,17,17,0,0,1,6.3,4.56,18.73,18.73,0,0,1,3.67,6.88,31.52,31.52,0,0,1,0,17.23,18.73,18.73,0,0,1-3.67,6.88A17.13,17.13,0,0,1,439.8,72,22.89,22.89,0,0,1,430.64,73.7ZM419.35,52q0,6.5,2.9,10.44a10.9,10.9,0,0,0,16.78,0q2.89-3.95,2.89-10.44T439,41.55a10.9,10.9,0,0,0-16.78,0Q419.36,45.5,419.35,52Z"/><path class="cls-1" d="M475.78,73.7a36,36,0,0,1-4.91-.34,25.37,25.37,0,0,1-5-1.24,21.93,21.93,0,0,1-4.76-2.4A20.22,20.22,0,0,1,456.92,66l4.56-6.64a18.42,18.42,0,0,0,3,3.67,15.84,15.84,0,0,0,3.52,2.43,15.13,15.13,0,0,0,3.79,1.32,19.36,19.36,0,0,0,3.86.38A11.49,11.49,0,0,0,482,65.7a4.44,4.44,0,0,0,2.16-3.9,4.14,4.14,0,0,0-1.85-3.56A17.91,17.91,0,0,0,477.71,56c-1.85-.62-3.88-1.22-6.07-1.81a30.73,30.73,0,0,1-6.06-2.32,14.58,14.58,0,0,1-4.64-3.67,9,9,0,0,1-1.86-6,10.17,10.17,0,0,1,4.53-8.82q4.51-3.16,12-3.16A26.14,26.14,0,0,1,484.94,32a21.19,21.19,0,0,1,8.15,5.61l-5.72,5.1a16.61,16.61,0,0,0-5.14-4.56,13.29,13.29,0,0,0-6.61-1.62c-2.52,0-4.34.45-5.44,1.35a4.1,4.1,0,0,0-1.67,3.28,3.66,3.66,0,0,0,1.86,3.21,22.55,22.55,0,0,0,4.68,2.2c1.87.67,3.91,1.34,6.1,2a33.74,33.74,0,0,1,6.11,2.52A14.49,14.49,0,0,1,491.93,55a9.37,9.37,0,0,1,1.86,6,11,11,0,0,1-4.6,9.35Q484.59,73.7,475.78,73.7Z"/><path class="cls-1" d="M520.84,73.7a22.35,22.35,0,0,1-9-1.66,17.14,17.14,0,0,1-6.26-4.56,18.39,18.39,0,0,1-3.64-6.88A30.76,30.76,0,0,1,500.74,52a29.67,29.67,0,0,1,1.2-8.61,18.51,18.51,0,0,1,3.71-6.88,17.52,17.52,0,0,1,6.3-4.56,22,22,0,0,1,8.89-1.66,28.43,28.43,0,0,1,7.27,1,15.8,15.8,0,0,1,6.49,3.52A16.15,16.15,0,0,1,539,41.82q1.5,4.51.81,11.71h-30a18.14,18.14,0,0,0,.89,5.29A12.46,12.46,0,0,0,513,63a10.18,10.18,0,0,0,3.51,2.7,10.59,10.59,0,0,0,4.6,1,14.94,14.94,0,0,0,2.9-.31,8.29,8.29,0,0,0,3-1.24,9.76,9.76,0,0,0,2.63-2.59,10.23,10.23,0,0,0,1.67-4.29l8.57,1.94c-.92,4.69-3.08,8.11-6.45,10.28A22.84,22.84,0,0,1,520.84,73.7Zm10.67-23.88a14.75,14.75,0,0,0-.89-6.3A10.39,10.39,0,0,0,528,39.69a9,9,0,0,0-3.48-1.89,13.26,13.26,0,0,0-3.4-.5,10,10,0,0,0-8,3.36,15.33,15.33,0,0,0-3.24,9.16Z"/></g></g></svg>